<svg width="23" height="18" viewBox="0 0 23 18" fill="none" xmlns="http://www.w3.org/2000/svg">
<path d="M21.6074 6.19844C21.775 6.06523 22.0242 6.18984 22.0242 6.40039V15.1875C22.0242 16.3262 21.1003 17.25 19.9617 17.25H2.08667C0.947998 17.25 0.0241699 16.3262 0.0241699 15.1875V6.40469C0.0241699 6.18984 0.269092 6.06953 0.440967 6.20273C1.40347 6.95039 2.67964 7.9 7.06245 11.084C7.96909 11.7457 9.49878 13.1379 11.0242 13.1293C12.5582 13.1422 14.1179 11.7199 14.9902 11.084C19.373 7.9 20.6449 6.94609 21.6074 6.19844ZM11.0242 11.75C12.021 11.7672 13.4562 10.4953 14.1781 9.97109C19.88 5.8332 20.314 5.47227 21.6289 4.44102C21.8781 4.24766 22.0242 3.94688 22.0242 3.62891V2.8125C22.0242 1.67383 21.1003 0.75 19.9617 0.75H2.08667C0.947998 0.75 0.0241699 1.67383 0.0241699 2.8125V3.62891C0.0241699 3.94688 0.170264 4.24336 0.419482 4.44102C1.73433 5.46797 2.16831 5.8332 7.87026 9.97109C8.59214 10.4953 10.0273 11.7672 11.0242 11.75Z" fill="#051619"/>
</svg>
