<svg width="21" height="20" viewBox="0 0 21 20" fill="none" xmlns="http://www.w3.org/2000/svg">
<path d="M10.0264 4.87336C7.1887 4.87336 4.8998 7.16226 4.8998 9.99997C4.8998 12.8377 7.1887 15.1266 10.0264 15.1266C12.8641 15.1266 15.153 12.8377 15.153 9.99997C15.153 7.16226 12.8641 4.87336 10.0264 4.87336ZM10.0264 13.3329C8.1926 13.3329 6.69344 11.8382 6.69344 9.99997C6.69344 8.16171 8.18814 6.66701 10.0264 6.66701C11.8647 6.66701 13.3594 8.16171 13.3594 9.99997C13.3594 11.8382 11.8602 13.3329 10.0264 13.3329ZM16.5585 4.66366C16.5585 5.32847 16.0231 5.85942 15.3627 5.85942C14.6979 5.85942 14.1669 5.324 14.1669 4.66366C14.1669 4.00331 14.7024 3.4679 15.3627 3.4679C16.0231 3.4679 16.5585 4.00331 16.5585 4.66366ZM19.9539 5.87727C19.878 4.27548 19.5122 2.85663 18.3387 1.68764C17.1697 0.51865 15.7509 0.152783 14.1491 0.0724706C12.4982 -0.0212272 7.5501 -0.0212272 5.89924 0.0724706C4.30192 0.148321 2.88307 0.514188 1.70961 1.68318C0.536161 2.85217 0.174756 4.27102 0.0944432 5.87281C0.000745494 7.52367 0.000745494 12.4718 0.0944432 14.1227C0.170294 15.7245 0.536161 17.1433 1.70961 18.3123C2.88307 19.4813 4.29745 19.8472 5.89924 19.9275C7.5501 20.0212 12.4982 20.0212 14.1491 19.9275C15.7509 19.8516 17.1697 19.4857 18.3387 18.3123C19.5077 17.1433 19.8736 15.7245 19.9539 14.1227C20.0476 12.4718 20.0476 7.52813 19.9539 5.87727ZM17.8212 15.894C17.4731 16.7685 16.7994 17.4422 15.9204 17.7947C14.6042 18.3168 11.4809 18.1963 10.0264 18.1963C8.57186 18.1963 5.44414 18.3123 4.13237 17.7947C3.25786 17.4467 2.58413 16.773 2.23164 15.894C1.70961 14.5778 1.83008 11.4545 1.83008 9.99997C1.83008 8.54542 1.71408 5.4177 2.23164 4.10593C2.57966 3.23142 3.25339 2.55769 4.13237 2.20521C5.4486 1.68318 8.57186 1.80365 10.0264 1.80365C11.4809 1.80365 14.6087 1.68764 15.9204 2.20521C16.7949 2.55323 17.4687 3.22696 17.8212 4.10593C18.3432 5.42216 18.2227 8.54542 18.2227 9.99997C18.2227 11.4545 18.3432 14.5822 17.8212 15.894Z" fill="#051619"/>
</svg>
