<svg width="251" height="120" viewBox="0 0 251 120" fill="none" xmlns="http://www.w3.org/2000/svg">
<path d="M3.04458 80.9106C3.04458 80.9106 13.0442 68.965 16.9083 62.045C19.7975 31.5323 30.9078 13.0507 43.6716 9.60347C57.1889 4.30471 175.709 -6.77064 221.19 9.60347C265.435 25.5424 253.296 108.488 221.19 115.408C187.92 122.584 160.924 113.565 149.564 112.191C138.204 110.818 94.4982 113.898 83.1379 117.635C71.7777 121.372 48.8535 116.782 38.8539 111.731C28.8543 106.679 21.5296 89.6481 19.4118 74.0077C11.3264 75.8508 6.64088 83.8288 3.04458 85.9534C-0.490994 88.0695 1.26608 82.1137 3.04458 80.9106Z" fill="white" stroke="#010101" stroke-width="2" stroke-miterlimit="10"/>
</svg>
